<svg width="14" height="12" viewBox="0 0 14 12" fill="none" xmlns="http://www.w3.org/2000/svg">
<path d="M12.3333 1.86667C12.9333 1.46667 13.4 0.866666 13.6 0.199999C13.0667 0.533333 12.4 0.800001 11.8 0.933334C11.2667 0.333334 10.5333 0 9.73333 0C8.13333 0 6.86667 1.33333 6.86667 3C6.86667 3.26667 6.86667 3.46667 6.93333 3.66667C4.53333 3.53333 2.4 2.33333 1 0.533333C0.733333 1 0.600001 1.53333 0.600001 2.06667C0.600001 3.13333 1.13334 4.06667 1.86667 4.6C1.4 4.6 0.933335 4.46667 0.533335 4.2V4.26667C0.533335 5.73333 1.53334 6.93333 2.86667 7.26667C2.6 7.33333 2.4 7.4 2.13333 7.4C1.93333 7.4 1.8 7.4 1.6 7.33333C1.93333 8.53333 3 9.4 4.26667 9.46667C3.26667 10.2667 2.06667 10.7333 0.666667 10.7333C0.466667 10.7333 0.2 10.7333 0 10.6667C1.26667 11.5333 2.8 12 4.4 12C9.66667 12 12.6 7.4 12.6 3.4C12.6 3.26667 12.6 3.13333 12.6 3C13.1333 2.6 13.6667 2.06667 14 1.4C13.4667 1.66667 12.9333 1.8 12.3333 1.86667Z" fill="black"/>
</svg>
