<svg width="17" height="9" viewBox="0 0 17 9" fill="none" xmlns="http://www.w3.org/2000/svg">
<path d="M9.37534 8.99598C9.37534 8.99598 9.71529 8.99598 9.85127 8.80321C9.98726 8.6747 9.98727 8.41767 9.98727 8.41767C9.98727 8.41767 9.98726 7.13253 10.5992 6.93976C11.2111 6.74698 12.027 8.16064 12.8429 8.6747C13.4548 9.06024 13.9988 8.99598 13.9988 8.99598H16.2425C16.2425 8.99598 17.3984 8.93173 16.8545 8.03213C16.7865 7.96787 16.5145 7.38956 15.1547 6.23293C13.7268 5.01205 13.9308 5.20482 15.6306 3.08434C16.6505 1.7992 17.0584 1.02811 16.9904 0.64257C16.8544 0.321285 16.1065 0.385541 16.1065 0.385541H13.5228C13.5228 0.385541 13.3189 0.38554 13.1829 0.449797C13.0469 0.514054 12.9789 0.706826 12.9789 0.706826C12.9789 0.706826 12.571 1.73494 12.027 2.57028C10.8712 4.36948 10.4632 4.43373 10.2592 4.36948C9.85128 4.11245 9.91927 3.34136 9.91927 2.76305C9.91927 1.02811 10.1912 0.321283 9.37534 0.128512C9.10338 0.0642551 8.89939 0 8.15148 0C7.26758 0 6.45167 -4.97902e-07 6.04372 0.192771C5.77175 0.321285 5.4998 0.64257 5.63579 0.64257C5.77177 0.64257 6.17971 0.706827 6.38368 0.963855C6.65565 1.28514 6.65567 2.05622 6.65567 2.05622C6.65567 2.05622 6.79165 4.11245 6.31571 4.36948C5.97575 4.56225 5.49979 4.17671 4.47991 2.57028C3.93598 1.73494 3.59603 0.835341 3.59603 0.835341C3.59603 0.835341 3.52802 0.642569 3.39204 0.578312C3.25606 0.449798 2.98408 0.449797 2.98408 0.449797H0.536389C0.536389 0.449797 0.196421 0.449798 0.0604373 0.578312C-0.0755466 0.706826 0.0604373 0.963855 0.0604373 0.963855C0.0604373 0.963855 1.96421 5.0763 4.13995 7.19678C6.11172 9.1245 8.35546 8.99598 8.35546 8.99598H9.37534Z" fill="black"/>
</svg>
