<svg width="14" height="14" viewBox="0 0 14 14" fill="none" xmlns="http://www.w3.org/2000/svg">
<path d="M11.2836 0H2.71642C1.25374 0 0 1.18408 0 2.71642V11.2836C0 12.7463 1.18409 14 2.71642 14H11.2836C12.7463 14 14 12.8159 14 11.2836V2.71642C14 1.18408 12.8159 0 11.2836 0ZM12.0498 1.60199H12.3284V3.97015H9.9602V1.60199H12.0498ZM5.01493 5.50249C5.43284 4.87562 6.19901 4.45771 7.03483 4.45771C7.87065 4.45771 8.56716 4.87562 9.05472 5.50249C9.33333 5.9204 9.54229 6.40796 9.54229 6.96517C9.54229 8.28856 8.42787 9.40299 7.10448 9.40299C5.7811 9.40299 4.66667 8.28856 4.66667 6.96517C4.59702 6.40796 4.73633 5.9204 5.01493 5.50249ZM12.6766 11.2139C12.6766 11.9801 12.0498 12.5373 11.3532 12.5373H2.78607C2.0199 12.5373 1.46269 11.9104 1.46269 11.2139V5.50249H3.55224C3.34329 5.9204 3.27364 6.40796 3.27364 6.96517C3.27364 9.05473 5.01493 10.796 7.10448 10.796C9.19404 10.796 10.9353 9.05473 10.9353 6.96517C10.9353 6.47761 10.8657 5.99005 10.6567 5.50249H12.7463V11.2139H12.6766Z" fill="black"/>
</svg>
